<?xml version="1.0" encoding="UTF-8" standalone="no"?>
<!-- Generator: Adobe Illustrator 21.1.0, SVG Export Plug-In . SVG Version: 6.00 Build 0)  -->

<svg
   xmlns:dc="http://purl.org/dc/elements/1.1/"
   xmlns:cc="http://creativecommons.org/ns#"
   xmlns:rdf="http://www.w3.org/1999/02/22-rdf-syntax-ns#"
   xmlns:svg="http://www.w3.org/2000/svg"
   xmlns="http://www.w3.org/2000/svg"
   xmlns:sodipodi="http://sodipodi.sourceforge.net/DTD/sodipodi-0.dtd"
   xmlns:inkscape="http://www.inkscape.org/namespaces/inkscape"
   version="1.1"
   id="svg2"
   inkscape:export-filename="/home/edward/Downloads/Broadcast logo.png"
   inkscape:export-xdpi="65.959999"
   inkscape:export-ydpi="65.959999"
   inkscape:version="0.92.1 r15371"
   sodipodi:docname="icon.svg"
   x="0px"
   y="0px"
   viewBox="0 0 682.3 650.9"
   xml:space="preserve"
   width="727.78668"
   height="694.29333"><metadata
     id="metadata123"><rdf:RDF><cc:Work
         rdf:about=""><dc:format>image/svg+xml</dc:format><dc:type
           rdf:resource="http://purl.org/dc/dcmitype/StillImage" /></cc:Work></rdf:RDF></metadata><defs
     id="defs121" /><style
     type="text/css"
     id="style2">
	.st0{opacity:0.5402;fill:url(#path3117_1_);enable-background:new    ;}
	.st1{fill:#888A85;}
	.st2{fill:url(#path3911_1_);}
	
		.st3{opacity:0.8;fill:none;stroke:url(#path3935_1_);stroke-width:8.111309e-02;stroke-linecap:square;stroke-linejoin:round;enable-background:new    ;}
	.st4{opacity:0.16;filter:url(#filter4745);enable-background:new    ;}
	.st5{fill:#2E3436;}
	.st6{fill:url(#path3953_1_);}
	.st7{opacity:0.8;fill:none;stroke:url(#path3982_1_);stroke-width:8.111309e-02;stroke-linecap:square;enable-background:new    ;}
	.st8{opacity:0.8;fill:url(#path3474_1_);enable-background:new    ;}
	.st9{fill:#445800;}
	.st10{fill:#8BB300;}
	.st11{fill:#638000;}
	.st12{fill:#EEEEEC;}
	.st13{opacity:0.8;fill:none;stroke:url(#path3431_1_);stroke-width:8.111309e-02;stroke-linecap:round;enable-background:new    ;}
	.st14{opacity:0.6;fill:url(#path3451_1_);enable-background:new    ;}
	.st15{fill:url(#rect2820_1_);}
	.st16{fill:url(#path3659_1_);}
	.st17{fill:url(#path3603_1_);}
	.st18{fill:url(#path3626_1_);}
	.st19{fill:#0169C9;}
	.st20{fill:#EEEEEE;}
</style><filter
     height="1.3019"
     id="filter4745"
     width="1.3209"
     x="-0.16044"
     y="-0.15096"
     style="color-interpolation-filters:sRGB"><feGaussianBlur
       id="feGaussianBlur4747"
       stdDeviation="0.53269676" /></filter><sodipodi:namedview
     bordercolor="#666666"
     borderopacity="1.0"
     fit-margin-bottom="5"
     fit-margin-left="5"
     fit-margin-right="5"
     fit-margin-top="5"
     id="base"
     inkscape:current-layer="layer1"
     inkscape:cx="-1332.6666"
     inkscape:cy="-128.14356"
     inkscape:document-units="px"
     inkscape:pageopacity="0.0"
     inkscape:pageshadow="2"
     inkscape:window-height="1542"
     inkscape:window-maximized="0"
     inkscape:window-width="2558"
     inkscape:window-x="0"
     inkscape:window-y="26"
     inkscape:zoom="0.24748737"
     pagecolor="#ffffff"
     showgrid="false"
     units="mm" /><g
     id="layer1"
     transform="translate(-35.466491,-151.20988)"
     inkscape:groupmode="layer"
     inkscape:label="Document"><g
       id="layer1-6"
       inkscape:label="Layer 1" /></g><g
     id="layer2"
     transform="translate(-35.466491,-151.20988)"
     inkscape:groupmode="layer"
     inkscape:label="Wifi" /><g
     id="g118"><circle
       cx="213.8"
       cy="556.59998"
       r="44"
       id="circle112" /><circle
       cx="522.5"
       cy="556.59998"
       r="44"
       id="circle114" /><path
       d="m 516.6,363.9 c 10.3,0 19.1,-6.1 23.2,-14.8 v 0 l 108.9,-188.7 -0.1,-0.1 c 1.6,-3.4 2.6,-7.1 2.6,-11 0,-14.2 -11.5,-25.8 -25.8,-25.8 v 0 H 516.6 303.1 225.2 v -48.3 0 C 225.2,61 213.7,49.4 199.4,49.4 v 0 0 H 58.6 v 0.2 C 57.9,49.5 57.2,49.4 56.5,49.4 43.3,49.4 32.6,59.3 31,72.1 h -0.3 v 25.8 0 c 0,14.2 11.5,25.8 25.8,25.8 0.7,0 1.4,-0.2 2.1,-0.2 v 0.2 H 151 v 326.6 0 c 0,14.2 11.6,25.7 25.8,25.7 0,0 0,0 0,0 v 0 h 442.5 v -0.6 c 12.2,-0.8 22,-9.9 23.8,-21.8 h 0.4 v -3.7 c 0,0 0,-0.1 0,-0.1 0,0 0,-0.1 0,-0.1 v -22.4 c 0,0 0,-0.1 0,-0.1 0,-13.7 -10.7,-24.8 -24.2,-25.6 v -0.2 h -394 v -37.2 l 291.3,-0.3 z"
       id="path116"
       inkscape:connector-curvature="0" /></g></svg>